{"asset":{"version":"2.0","generator":"babylon.js glTF exporter for Autodesk MAYA 2024.2 v4"},"scene":0,"scenes":[{"nodes":[0,1,2,3,4,5,6,7,8,9,10]}],"nodes":[{"mesh":0,"name":"Terrain","extras":{"currentUVSet":"map1"}},{"mesh":1,"name":"Skull","extras":{"currentUVSet":"map1"}},{"mesh":2,"name":"BoulderBadgeLight","extras":{"currentUVSet":"map1"}},{"mesh":3,"name":"BoulderBadgeDark","extras":{"currentUVSet":"map1"}},{"mesh":4,"name":"pPlane16","extras":{"currentUVSet":"map1"}},{"mesh":5,"name":"Pokeball01_pSphere1","extras":{"currentUVSet":"map1"}},{"mesh":6,"name":"polySurface2","extras":{"currentUVSet":"map1"}},{"mesh":7,"name":"polySurface3","extras":{"currentUVSet":"map1"}},{"mesh":8,"name":"polySurface4","extras":{"currentUVSet":"map1"}},{"mesh":9,"name":"Mew"},{"mesh":10,"name":"MewStroke"}],"meshes":[{"primitives":[{"attributes":{"POSITION":1,"TANGENT":2,"NORMAL":3,"TEXCOORD_0":4},"indices":0,"material":0}],"name":"Terrain"},{"primitives":[{"attributes":{"POSITION":6,"TANGENT":7,"NORMAL":8,"TEXCOORD_0":9},"indices":5,"material":1}],"name":"Skull"},{"primitives":[{"attributes":{"POSITION":11,"TANGENT":12,"NORMAL":13,"TEXCOORD_0":14},"indices":10,"material":2}],"name":"BoulderBadgeLight"},{"primitives":[{"attributes":{"POSITION":16,"TANGENT":17,"NORMAL":18,"TEXCOORD_0":19},"indices":15,"material":3}],"name":"BoulderBadgeDark"},{"primitives":[{"attributes":{"POSITION":21,"TANGENT":22,"NORMAL":23,"TEXCOORD_0":24},"indices":20,"material":4}],"name":"pPlane16"},{"primitives":[{"attributes":{"POSITION":26,"TANGENT":27,"NORMAL":28,"TEXCOORD_0":29},"indices":25,"material":5}],"name":"Pokeball01_pSphere1"},{"primitives":[{"attributes":{"POSITION":31,"TANGENT":32,"NORMAL":33,"TEXCOORD_0":34},"indices":30,"material":6}],"name":"polySurface2"},{"primitives":[{"attributes":{"POSITION":36,"TANGENT":37,"NORMAL":38,"TEXCOORD_0":39},"indices":35,"material":6}],"name":"polySurface3"},{"primitives":[{"attributes":{"POSITION":41,"TANGENT":42,"NORMAL":43,"TEXCOORD_0":44},"indices":40,"material":6}],"name":"polySurface4"},{"primitives":[{"attributes":{"POSITION":46,"TANGENT":47,"NORMAL":48,"TEXCOORD_0":49},"indices":45,"material":7}],"name":"Mew"},{"primitives":[{"attributes":{"POSITION":51,"TANGENT":52,"NORMAL":53,"TEXCOORD_0":54},"indices":50,"material":8}],"name":"MewStroke"}],"accessors":[{"bufferView":0,"componentType":5123,"count":576,"type":"SCALAR","name":"accessorIndices"},{"bufferView":1,"componentType":5126,"count":114,"max":[0.394376338,-0.07316911,0.429428428],"min":[-0.394376338,-0.245614335,-0.359324217],"type":"VEC3","name":"accessorPositions"},{"bufferView":2,"componentType":5126,"count":114,"type":"VEC4","name":"accessorTangents"},{"bufferView":1,"byteOffset":1368,"componentType":5126,"count":114,"type":"VEC3","name":"accessorNormals"},{"bufferView":3,"componentType":5126,"count":114,"type":"VEC2","name":"accessorUVs"},{"bufferView":0,"byteOffset":1152,"componentType":5123,"count":3576,"type":"SCALAR","name":"accessorIndices"},{"bufferView":1,"byteOffset":2736,"componentType":5126,"count":753,"max":[0.197250932,-0.05743313,-0.0989989],"min":[0.100956239,-0.117137417,-0.180946648],"type":"VEC3","name":"accessorPositions"},{"bufferView":2,"byteOffset":1824,"componentType":5126,"count":753,"type":"VEC4","name":"accessorTangents"},{"bufferView":1,"byteOffset":11772,"componentType":5126,"count":753,"type":"VEC3","name":"accessorNormals"},{"bufferView":3,"byteOffset":912,"componentType":5126,"count":753,"type":"VEC2","name":"accessorUVs"},{"bufferView":0,"byteOffset":8304,"componentType":5123,"count":240,"type":"SCALAR","name":"accessorIndices"},{"bufferView":1,"byteOffset":20808,"componentType":5126,"count":146,"max":[-0.138348475,-0.11084272,-0.183405325],"min":[-0.163645208,-0.121754274,-0.2084604],"type":"VEC3","name":"accessorPositions"},{"bufferView":2,"byteOffset":13872,"componentType":5126,"count":146,"type":"VEC4","name":"accessorTangents"},{"bufferView":1,"byteOffset":22560,"componentType":5126,"count":146,"type":"VEC3","name":"accessorNormals"},{"bufferView":3,"byteOffset":6936,"componentType":5126,"count":146,"type":"VEC2","name":"accessorUVs"},{"bufferView":0,"byteOffset":8784,"componentType":5123,"count":432,"type":"SCALAR","name":"accessorIndices"},{"bufferView":1,"byteOffset":24312,"componentType":5126,"count":286,"max":[-0.138348475,-0.11084272,-0.183405325],"min":[-0.163645208,-0.121754274,-0.2084604],"type":"VEC3","name":"accessorPositions"},{"bufferView":2,"byteOffset":16208,"componentType":5126,"count":286,"type":"VEC4","name":"accessorTangents"},{"bufferView":1,"byteOffset":27744,"componentType":5126,"count":286,"type":"VEC3","name":"accessorNormals"},{"bufferView":3,"byteOffset":8104,"componentType":5126,"count":286,"type":"VEC2","name":"accessorUVs"},{"bufferView":0,"byteOffset":9648,"componentType":5123,"count":10080,"type":"SCALAR","name":"accessorIndices"},{"bufferView":1,"byteOffset":31176,"componentType":5126,"count":3024,"max":[0.4112478,-0.0129270265,0.43771553],"min":[-0.3686415,-0.178081676,-0.280208915],"type":"VEC3","name":"accessorPositions"},{"bufferView":2,"byteOffset":20784,"componentType":5126,"count":3024,"type":"VEC4","name":"accessorTangents"},{"bufferView":1,"byteOffset":67464,"componentType":5126,"count":3024,"type":"VEC3","name":"accessorNormals"},{"bufferView":3,"byteOffset":10392,"componentType":5126,"count":3024,"type":"VEC2","name":"accessorUVs"},{"bufferView":0,"byteOffset":29808,"componentType":5123,"count":12204,"type":"SCALAR","name":"accessorIndices"},{"bufferView":1,"byteOffset":103752,"componentType":5126,"count":3330,"max":[0.314751863,-0.05529827,0.2898825],"min":[-0.07068109,-0.123799108,-0.0229029916],"type":"VEC3","name":"accessorPositions"},{"bufferView":2,"byteOffset":69168,"componentType":5126,"count":3330,"type":"VEC4","name":"accessorTangents"},{"bufferView":1,"byteOffset":143712,"componentType":5126,"count":3330,"type":"VEC3","name":"accessorNormals"},{"bufferView":3,"byteOffset":34584,"componentType":5126,"count":3330,"type":"VEC2","name":"accessorUVs"},{"bufferView":0,"byteOffset":54216,"componentType":5123,"count":336,"type":"SCALAR","name":"accessorIndices"},{"bufferView":1,"byteOffset":183672,"componentType":5126,"count":81,"max":[-0.05948594,-0.0668058544,0.281269878],"min":[-0.06504309,-0.07349481,0.275041163],"type":"VEC3","name":"accessorPositions"},{"bufferView":2,"byteOffset":122448,"componentType":5126,"count":81,"type":"VEC4","name":"accessorTangents"},{"bufferView":1,"byteOffset":184644,"componentType":5126,"count":81,"type":"VEC3","name":"accessorNormals"},{"bufferView":3,"byteOffset":61224,"componentType":5126,"count":81,"type":"VEC2","name":"accessorUVs"},{"bufferView":0,"byteOffset":54888,"componentType":5123,"count":336,"type":"SCALAR","name":"accessorIndices"},{"bufferView":1,"byteOffset":185616,"componentType":5126,"count":81,"max":[0.277313828,-0.0786518157,-0.007118015],"min":[0.271079361,-0.08454878,-0.0134927938],"type":"VEC3","name":"accessorPositions"},{"bufferView":2,"byteOffset":123744,"componentType":5126,"count":81,"type":"VEC4","name":"accessorTangents"},{"bufferView":1,"byteOffset":186588,"componentType":5126,"count":81,"type":"VEC3","name":"accessorNormals"},{"bufferView":3,"byteOffset":61872,"componentType":5126,"count":81,"type":"VEC2","name":"accessorUVs"},{"bufferView":0,"byteOffset":55560,"componentType":5123,"count":336,"type":"SCALAR","name":"accessorIndices"},{"bufferView":1,"byteOffset":187560,"componentType":5126,"count":81,"max":[0.25124675,-0.0875782743,0.0966683552],"min":[0.245057955,-0.09470858,0.09199964],"type":"VEC3","name":"accessorPositions"},{"bufferView":2,"byteOffset":125040,"componentType":5126,"count":81,"type":"VEC4","name":"accessorTangents"},{"bufferView":1,"byteOffset":188532,"componentType":5126,"count":81,"type":"VEC3","name":"accessorNormals"},{"bufferView":3,"byteOffset":62520,"componentType":5126,"count":81,"type":"VEC2","name":"accessorUVs"},{"bufferView":0,"byteOffset":56232,"componentType":5123,"count":7674,"type":"SCALAR","name":"accessorIndices"},{"bufferView":1,"byteOffset":189504,"componentType":5126,"count":1673,"max":[0.152167588,0.443137527,0.220685],"min":[-0.143782824,0.05007274,-0.1449406],"type":"VEC3","name":"accessorPositions"},{"bufferView":2,"byteOffset":126336,"componentType":5126,"count":1673,"type":"VEC4","name":"accessorTangents"},{"bufferView":1,"byteOffset":209580,"componentType":5126,"count":1673,"type":"VEC3","name":"accessorNormals"},{"bufferView":3,"byteOffset":63168,"componentType":5126,"count":1673,"type":"VEC2","name":"accessorUVs"},{"bufferView":0,"byteOffset":71580,"componentType":5123,"count":7674,"type":"SCALAR","name":"accessorIndices"},{"bufferView":1,"byteOffset":229656,"componentType":5126,"count":1673,"max":[0.1525309,0.4436989,0.220755249],"min":[-0.144323915,0.04947482,-0.145536751],"type":"VEC3","name":"accessorPositions"},{"bufferView":2,"byteOffset":153104,"componentType":5126,"count":1673,"type":"VEC4","name":"accessorTangents"},{"bufferView":1,"byteOffset":249732,"componentType":5126,"count":1673,"type":"VEC3","name":"accessorNormals"},{"bufferView":3,"byteOffset":76552,"componentType":5126,"count":1673,"type":"VEC2","name":"accessorUVs"}],"bufferViews":[{"buffer":0,"byteLength":86928,"name":"bufferViewScalar"},{"buffer":0,"byteOffset":86928,"byteLength":269808,"byteStride":12,"name":"bufferViewFloatVec3"},{"buffer":0,"byteOffset":356736,"byteLength":179872,"byteStride":16,"name":"bufferViewFloatVec4"},{"buffer":0,"byteOffset":536608,"byteLength":89936,"byteStride":8,"name":"bufferViewFloatVec2"}],"buffers":[{"uri":"MewAnimated.bin","byteLength":626544}],"materials":[{"pbrMetallicRoughness":{"baseColorTexture":{"index":1},"metallicFactor":0.0,"roughnessFactor":0.450053632},"emissiveTexture":{"index":0},"emissiveFactor":[1.0,1.0,1.0],"alphaMode":"BLEND","name":"MatTerrain"},{"pbrMetallicRoughness":{"baseColorTexture":{"index":3},"metallicFactor":0.0,"roughnessFactor":0.450053632},"emissiveTexture":{"index":2},"emissiveFactor":[1.0,1.0,1.0],"alphaMode":"BLEND","name":"MatSkull"},{"pbrMetallicRoughness":{"baseColorFactor":[0.5,0.5,0.5,1.0],"metallicFactor":0.0,"roughnessFactor":0.450053632},"emissiveFactor":[0.2580645,0.2580645,0.2580645],"name":"MatBadgeBoulderLight"},{"pbrMetallicRoughness":{"baseColorFactor":[0.374193549,0.374193549,0.374193549,1.0],"metallicFactor":0.0,"roughnessFactor":0.450053632},"emissiveFactor":[0.09677419,0.09677419,0.09677419],"name":"MatBadgeBoulderDark"},{"pbrMetallicRoughness":{"baseColorTexture":{"index":4},"metallicFactor":0.0,"roughnessFactor":0.450053632},"emissiveTexture":{"index":4},"emissiveFactor":[1.0,1.0,1.0],"name":"MatGrass"},{"pbrMetallicRoughness":{"baseColorTexture":{"index":6},"metallicFactor":0.0,"roughnessFactor":0.450053632},"emissiveTexture":{"index":5},"emissiveFactor":[1.0,1.0,1.0],"alphaMode":"BLEND","name":"MatPokeRed"},{"pbrMetallicRoughness":{"baseColorFactor":[1.0,0.960077345,0.654000044,1.0],"metallicFactor":0.0,"roughnessFactor":0.450053632},"emissiveFactor":[1.0,0.960077345,0.654000044],"name":"MatPokeLightOn"},{"pbrMetallicRoughness":{"baseColorTexture":{"index":7},"metallicFactor":0.0,"roughnessFactor":0.436951876},"emissiveTexture":{"index":7},"emissiveFactor":[1.0,1.0,1.0],"name":"MatMew"},{"pbrMetallicRoughness":{"baseColorFactor":[0.136,0.0,0.09415505,1.0],"metallicFactor":0.0,"roughnessFactor":0.201679826},"emissiveFactor":[0.136,0.0,0.09415505],"name":"Stroke"}],"textures":[{"sampler":0,"source":0,"name":"TerrainDiffuseBlack.png"},{"sampler":0,"source":1,"name":"TerrainDiffuseBlack_alpha_TerrainDiffuseBlack.png"},{"sampler":0,"source":2,"name":"SkullDiffuse.png"},{"sampler":0,"source":3,"name":"SkullDiffuse_alpha_SkullDiffuse.png"},{"sampler":0,"source":4,"name":"GrassDiffuse.png"},{"sampler":0,"source":5,"name":"PokeballDiffuse.png"},{"sampler":0,"source":6,"name":"PokeballDiffuse_alpha_PokeballDiffuse.png"},{"sampler":0,"source":7,"name":"Mew_Albedo.jpg"}],"images":[{"uri":"TerrainDiffuseBlack.png"},{"uri":"TerrainDiffuseBlack_alpha_TerrainDiffuseBlack.png"},{"uri":"SkullDiffuse.png"},{"uri":"SkullDiffuse_alpha_SkullDiffuse.png"},{"uri":"GrassDiffuse.png"},{"uri":"PokeballDiffuse.png"},{"uri":"PokeballDiffuse_alpha_PokeballDiffuse.png"},{"uri":"Mew_Albedo.jpg"}],"samplers":[{"magFilter":9729,"minFilter":9987}]}